<svg cache-id="c16c2ff4c0bf47c5a038e6efbd92fa0f" id="eAfst9EMOmb1" xmlns="http://www.w3.org/2000/svg" xmlns:xlink="http://www.w3.org/1999/xlink" viewBox="0 0 16 12" shape-rendering="geometricPrecision" text-rendering="geometricPrecision"><path d="M1.5,2C0.671573,2,0,2.671573,0,3.5v9c0,.828427.671573,1.5,1.5,1.5h.191l1.862-3.724c.084771-.16917.257778-.275994.447-.276h8c.189222.000006.362229.10683.447.276L14.31,14h.191c.828427,0,1.5-.671573,1.5-1.5v-9c0-.397998-.158172-.779681-.439693-1.061014s-.663309-.439251-1.061307-.438986h-13ZM4,7c-.552285,0-1-.447715-1-1s.447715-1,1-1s1,.447715,1,1-.447715,1-1,1Zm8,0c-.552285,0-1-.447715-1-1s.447715-1,1-1s1,.447715,1,1-.447715,1-1,1ZM6,6c0-.552285.447715-1,1-1h2c.552285,0,1,.447715,1,1s-.447715,1-1,1h-2c-.552285,0-1-.447715-1-1Z" transform="matrix(1 0 0 1.000085 0-1.989173)" fill="#1f2937" stroke-miterlimit="2"/><path d="M13.191,14l-1.5-3h-7.382l-1.5,3h10.382Z" transform="matrix(1.010576 0 0 1.063113-.155772-3.113734)" fill="#1f2937"/><rect width="11.305121" height="0.458254" rx="0" ry="0" transform="translate(2.34744 11.553763)" fill="#1f2937" stroke-width="0"/><ellipse rx="0.24" ry="0.238903" transform="translate(5.055447 12.25092)" fill="#d2dbed" stroke-width="0"/><ellipse rx="0.24" ry="0.238903" transform="translate(10.055447 12.25092)" fill="#d2dbed" stroke-width="0"/><ellipse rx="0.24" ry="0.238903" transform="translate(6.095447 11.773114)" fill="#d2dbed" stroke-width="0"/><ellipse rx="0.24" ry="0.238903" transform="translate(9.095447 11.773114)" fill="#d2dbed" stroke-width="0"/></svg>
